<?xml version="1.0" encoding="utf-8"?>
<svg width="3072" height="1024" viewBox="0 0 3072 1024" fill="none" xmlns="http://www.w3.org/2000/svg">
  <g>
    <g>
      <path d="M1024.67 0L0 0L0 1024L1024.67 1024L1024.67 0L1024.67 0Z" fill="#D5EDF7" fill-rule="evenodd" />
      <path d="M866.464 112.8C857.425 112.8 849.703 115.767 843.299 121.7C842.365 122.6 841.481 123.533 840.647 124.5C824.804 110.7 805.858 103.8 783.81 103.8C779.341 103.8 774.988 104.1 770.752 104.7C770.418 104.367 770.085 104.05 769.751 103.75C763.414 97.7833 755.709 94.8 746.636 94.8C741.499 94.8 736.763 95.8 732.427 97.8C732.427 97.8 732.377 97.8 732.377 97.8C732.377 97.6333 732.393 97.4667 732.427 97.3C732.494 96.6 732.527 95.9167 732.527 95.25C732.527 94.95 732.527 94.7 732.527 94.5C732.527 94.1667 732.527 93.8167 732.527 93.45C732.26 85.4833 729.058 78.65 722.921 72.95C716.55 67.0167 708.845 64.05 699.806 64.05C697.804 64.05 695.903 64.2 694.102 64.5C692.601 59.7667 689.832 55.5333 685.796 51.8C679.426 45.8667 671.721 42.9 662.681 42.9C653.642 42.9 645.937 45.8667 639.566 51.8C635.197 55.8667 632.312 60.5167 630.911 65.75C616.768 68.45 604.143 74.4833 593.036 83.85C587.366 79.7167 580.745 77.65 573.173 77.65C564.134 77.65 556.412 80.6167 550.008 86.55C545.372 90.8833 542.42 95.9 541.152 101.6C535.515 100.5 529.645 99.95 523.541 99.95C521.606 99.95 519.672 100.017 517.737 100.15C516.336 95.0167 513.484 90.4333 509.182 86.4C502.844 80.4667 495.139 77.5 486.066 77.5C477.027 77.5 469.306 80.4667 462.901 86.4C462.668 86.6667 462.468 86.9 462.301 87.1C458.765 81.5667 454.396 76.3666 449.192 71.5C432.882 56.3333 413.202 48.7333 390.154 48.7C388.586 45.1334 386.235 41.9 383.099 39C376.729 33.0667 369.007 30.1 359.934 30.1C356.866 30.1 353.997 30.4333 351.329 31.1C350.728 23.7667 347.543 17.4333 341.772 12.1C335.402 6.16669 327.697 3.20001 318.657 3.20001C312.187 3.20001 306.45 4.70001 301.446 7.70001C290.306 2.56665 278.031 0 264.622 0C241.474 0 221.744 7.59998 205.434 22.8C197.862 29.8334 192.058 37.5334 188.022 45.9C185.754 45.4667 183.369 45.25 180.868 45.25C171.895 45.25 164.19 48.2 157.753 54.1C151.749 59.7 148.597 66.45 148.297 74.35C148.263 74.75 148.247 75.1833 148.247 75.65C148.247 76.5167 148.28 77.3834 148.347 78.25C148.647 81.85 149.581 85.25 151.148 88.45C150.048 90.75 149.247 93.1833 148.747 95.75C140.375 99.45 132.636 104.617 125.532 111.25C122.53 114.05 119.795 116.983 117.326 120.05C112.223 117.017 106.419 115.5 99.915 115.5C90.8758 115.5 83.1875 118.467 76.85 124.4C72.0803 128.8 69.095 133.883 67.8942 139.65C67.3605 139.65 66.8268 139.65 66.2932 139.65C53.2847 139.65 41.3603 142.083 30.5199 146.95C25.9169 144.65 20.8469 143.5 15.31 143.5C9.67296 143.5 4.56964 144.667 0 147C0 147 0 398.85 0 398.85L1024.67 398.85C1024.67 398.85 1024.67 150.25 1024.67 150.25C1024.4 139.75 1020.53 130.767 1013.06 123.3C1006.39 116.633 998.55 112.833 989.544 111.9C988.11 109.833 986.459 107.867 984.591 106C976.819 98.2333 967.48 94.35 956.573 94.35C951.903 94.35 947.534 95.0667 943.464 96.5C937.994 98.3666 933.041 101.533 928.605 106C922.401 112.167 918.681 119.383 917.447 127.65C910.343 128.517 903.622 130.217 897.284 132.75C895.716 128.65 893.148 124.967 889.579 121.7C883.242 115.767 875.537 112.8 866.464 112.8C866.464 112.8 866.464 112.8 866.464 112.8Z" fill="#E6F4FA" fill-rule="evenodd" transform="translate(0 396.05)" />
      <path d="M1024.62 17.1885C1001.34 25.4552 978.47 34.7218 956.022 44.9885C916.697 62.9885 876.487 64.4052 835.394 49.2385C797.302 35.1385 758.811 22.2719 719.919 10.6385C679.993 -1.26147 639.55 -3.17822 598.59 4.88849C557.696 12.9552 518.621 25.8385 481.363 43.5385C443.706 61.3052 403.846 70.3385 361.786 70.6385C319.792 71.0051 279.148 64.0552 239.856 49.7885C201.765 35.8552 162.923 24.2219 123.33 14.8885C81.9367 5.2218 40.8266 5.98853 0 17.1885C0 17.1885 0 406.489 0 406.489L1024.62 406.489L1024.62 17.1885C1024.62 17.1885 1024.62 17.1885 1024.62 17.1885Z" fill="#B6D9E7" fill-rule="evenodd" transform="translate(0.05 617.512)" />
    </g>
    <g transform="translate(1023.666 0)">
      <path d="M1024.67 0L0 0L0 1024L1024.67 1024L1024.67 0L1024.67 0Z" fill="#D5EDF7" fill-rule="evenodd" />
      <path d="M866.464 112.8C857.425 112.8 849.703 115.767 843.299 121.7C842.365 122.6 841.481 123.533 840.647 124.5C824.804 110.7 805.858 103.8 783.81 103.8C779.341 103.8 774.988 104.1 770.752 104.7C770.418 104.367 770.085 104.05 769.751 103.75C763.414 97.7833 755.709 94.8 746.636 94.8C741.499 94.8 736.763 95.8 732.427 97.8C732.427 97.8 732.377 97.8 732.377 97.8C732.377 97.6333 732.393 97.4667 732.427 97.3C732.493 96.6 732.527 95.9167 732.527 95.25C732.527 94.95 732.527 94.7 732.527 94.5C732.527 94.1667 732.527 93.8167 732.527 93.45C732.26 85.4833 729.058 78.65 722.921 72.95C716.55 67.0167 708.845 64.05 699.805 64.05C697.804 64.05 695.903 64.2 694.102 64.5C692.601 59.7667 689.832 55.5333 685.796 51.8C679.426 45.8667 671.721 42.9 662.681 42.9C653.642 42.9 645.937 45.8667 639.566 51.8C635.197 55.8667 632.312 60.5167 630.911 65.75C616.768 68.45 604.143 74.4833 593.036 83.85C587.366 79.7167 580.745 77.65 573.173 77.65C564.134 77.65 556.412 80.6167 550.008 86.55C545.372 90.8833 542.42 95.9 541.152 101.6C535.515 100.5 529.645 99.95 523.541 99.95C521.606 99.95 519.672 100.017 517.737 100.15C516.336 95.0167 513.484 90.4333 509.181 86.4C502.844 80.4667 495.139 77.5 486.066 77.5C477.027 77.5 469.305 80.4667 462.901 86.4C462.668 86.6667 462.468 86.9 462.301 87.1C458.765 81.5667 454.396 76.3666 449.192 71.5C432.882 56.3333 413.202 48.7333 390.154 48.7C388.586 45.1334 386.235 41.9 383.099 39C376.729 33.0667 369.007 30.1 359.934 30.1C356.866 30.1 353.997 30.4333 351.329 31.1C350.728 23.7667 347.543 17.4333 341.772 12.1C335.402 6.16669 327.697 3.20001 318.657 3.20001C312.187 3.20001 306.449 4.70001 301.446 7.70001C290.306 2.56665 278.031 0 264.622 0C241.474 0 221.744 7.59998 205.434 22.8C197.862 29.8334 192.058 37.5334 188.022 45.9C185.754 45.4667 183.369 45.25 180.868 45.25C171.895 45.25 164.19 48.2 157.753 54.1C151.749 59.7 148.597 66.45 148.297 74.35C148.263 74.75 148.246 75.1833 148.246 75.65C148.246 76.5167 148.28 77.3834 148.347 78.25C148.647 81.85 149.581 85.25 151.148 88.45C150.048 90.75 149.247 93.1833 148.747 95.75C140.375 99.45 132.636 104.617 125.532 111.25C122.53 114.05 119.795 116.983 117.326 120.05C112.223 117.017 106.419 115.5 99.915 115.5C90.8758 115.5 83.1875 118.467 76.85 124.4C72.0803 128.8 69.095 133.883 67.8942 139.65C67.3605 139.65 66.8268 139.65 66.2932 139.65C53.2847 139.65 41.3603 142.083 30.5199 146.95C25.9169 144.65 20.8469 143.5 15.31 143.5C9.67296 143.5 4.56964 144.667 0 147C0 147 0 398.85 0 398.85L1024.67 398.85C1024.67 398.85 1024.67 150.25 1024.67 150.25C1024.4 139.75 1020.53 130.767 1013.06 123.3C1006.39 116.633 998.55 112.833 989.544 111.9C988.11 109.833 986.459 107.867 984.591 106C976.819 98.2333 967.48 94.35 956.573 94.35C951.903 94.35 947.533 95.0667 943.464 96.5C937.994 98.3666 933.041 101.533 928.604 106C922.4 112.167 918.681 119.383 917.447 127.65C910.343 128.517 903.622 130.217 897.284 132.75C895.716 128.65 893.148 124.967 889.579 121.7C883.242 115.767 875.537 112.8 866.464 112.8C866.464 112.8 866.464 112.8 866.464 112.8Z" fill="#E6F4FA" fill-rule="evenodd" transform="translate(0 396.05)" />
      <path d="M1024.62 17.1885C1001.34 25.4552 978.47 34.7218 956.022 44.9885C916.697 62.9885 876.487 64.4052 835.394 49.2385C797.302 35.1385 758.811 22.2719 719.919 10.6385C679.993 -1.26147 639.55 -3.17822 598.59 4.88849C557.696 12.9552 518.621 25.8385 481.363 43.5385C443.706 61.3052 403.846 70.3385 361.785 70.6385C319.792 71.0051 279.148 64.0552 239.856 49.7885C201.765 35.8552 162.923 24.2219 123.33 14.8885C81.9367 5.2218 40.8266 5.98853 0 17.1885C0 17.1885 0 406.489 0 406.489L1024.62 406.489L1024.62 17.1885C1024.62 17.1885 1024.62 17.1885 1024.62 17.1885Z" fill="#B6D9E7" fill-rule="evenodd" transform="translate(0.05 617.512)" />
    </g>
    <g transform="translate(2047.333 0)">
      <path d="M1024.67 0L0 0L0 1024L1024.67 1024L1024.67 0L1024.67 0Z" fill="#D5EDF7" fill-rule="evenodd" />
      <path d="M866.464 112.8C857.425 112.8 849.703 115.767 843.299 121.7C842.365 122.6 841.481 123.533 840.647 124.5C824.804 110.7 805.858 103.8 783.81 103.8C779.341 103.8 774.988 104.1 770.752 104.7C770.418 104.367 770.085 104.05 769.751 103.75C763.414 97.7833 755.709 94.8 746.636 94.8C741.499 94.8 736.763 95.8 732.427 97.8C732.427 97.8 732.377 97.8 732.377 97.8C732.377 97.6333 732.393 97.4667 732.427 97.3C732.494 96.6 732.527 95.9167 732.527 95.25C732.527 94.95 732.527 94.7 732.527 94.5C732.527 94.1667 732.527 93.8167 732.527 93.45C732.26 85.4833 729.058 78.65 722.921 72.95C716.55 67.0167 708.845 64.05 699.806 64.05C697.804 64.05 695.903 64.2 694.102 64.5C692.601 59.7667 689.832 55.5333 685.796 51.8C679.426 45.8667 671.721 42.9 662.681 42.9C653.642 42.9 645.937 45.8667 639.566 51.8C635.197 55.8667 632.312 60.5167 630.911 65.75C616.768 68.45 604.143 74.4833 593.036 83.85C587.366 79.7167 580.745 77.65 573.173 77.65C564.134 77.65 556.412 80.6167 550.008 86.55C545.372 90.8833 542.42 95.9 541.152 101.6C535.515 100.5 529.645 99.95 523.541 99.95C521.606 99.95 519.672 100.017 517.737 100.15C516.336 95.0167 513.484 90.4333 509.182 86.4C502.844 80.4667 495.139 77.5 486.066 77.5C477.027 77.5 469.306 80.4667 462.901 86.4C462.668 86.6667 462.468 86.9 462.301 87.1C458.765 81.5667 454.396 76.3666 449.192 71.5C432.882 56.3333 413.202 48.7333 390.154 48.7C388.586 45.1334 386.235 41.9 383.099 39C376.729 33.0667 369.007 30.1 359.934 30.1C356.866 30.1 353.997 30.4333 351.329 31.1C350.728 23.7667 347.543 17.4333 341.772 12.1C335.402 6.16669 327.697 3.20001 318.657 3.20001C312.187 3.20001 306.45 4.70001 301.446 7.70001C290.306 2.56665 278.031 0 264.622 0C241.474 0 221.744 7.59998 205.434 22.8C197.862 29.8334 192.058 37.5334 188.022 45.9C185.754 45.4667 183.369 45.25 180.868 45.25C171.895 45.25 164.19 48.2 157.753 54.1C151.749 59.7 148.597 66.45 148.297 74.35C148.263 74.75 148.247 75.1833 148.247 75.65C148.247 76.5167 148.28 77.3834 148.347 78.25C148.647 81.85 149.581 85.25 151.148 88.45C150.048 90.75 149.247 93.1833 148.747 95.75C140.375 99.45 132.636 104.617 125.532 111.25C122.53 114.05 119.795 116.983 117.326 120.05C112.223 117.017 106.419 115.5 99.915 115.5C90.8758 115.5 83.1875 118.467 76.85 124.4C72.0803 128.8 69.095 133.883 67.8942 139.65C67.3605 139.65 66.8268 139.65 66.2932 139.65C53.2847 139.65 41.3603 142.083 30.5199 146.95C25.9169 144.65 20.8469 143.5 15.31 143.5C9.67296 143.5 4.56964 144.667 0 147C0 147 0 398.85 0 398.85L1024.67 398.85C1024.67 398.85 1024.67 150.25 1024.67 150.25C1024.4 139.75 1020.53 130.767 1013.06 123.3C1006.39 116.633 998.55 112.833 989.544 111.9C988.11 109.833 986.459 107.867 984.591 106C976.819 98.2333 967.48 94.35 956.573 94.35C951.903 94.35 947.534 95.0667 943.464 96.5C937.994 98.3666 933.041 101.533 928.605 106C922.401 112.167 918.681 119.383 917.447 127.65C910.343 128.517 903.622 130.217 897.284 132.75C895.716 128.65 893.148 124.967 889.579 121.7C883.242 115.767 875.537 112.8 866.464 112.8C866.464 112.8 866.464 112.8 866.464 112.8Z" fill="#E6F4FA" fill-rule="evenodd" transform="translate(0 396.05)" />
      <path d="M1024.62 17.1885C1001.34 25.4552 978.47 34.7218 956.022 44.9885C916.697 62.9885 876.487 64.4052 835.394 49.2385C797.302 35.1385 758.811 22.2719 719.919 10.6385C679.993 -1.26147 639.55 -3.17822 598.59 4.88849C557.696 12.9552 518.621 25.8385 481.363 43.5385C443.706 61.3052 403.846 70.3385 361.786 70.6385C319.792 71.0051 279.148 64.0552 239.856 49.7885C201.765 35.8552 162.923 24.2219 123.33 14.8885C81.9367 5.2218 40.8266 5.98853 0 17.1885C0 17.1885 0 406.489 0 406.489L1024.62 406.489L1024.62 17.1885C1024.62 17.1885 1024.62 17.1885 1024.62 17.1885Z" fill="#B6D9E7" fill-rule="evenodd" transform="translate(0.05 617.512)" />
    </g>
  </g>
</svg>